<svg xmlns="http://www.w3.org/2000/svg" viewBox="0 0 1080 1920" width="1080" height="1920">
  <defs>
    <radialGradient id="bg" cx="0.85" cy="1" r="1.2">
      <stop offset="0" stop-color="#3a1050"/>
      <stop offset="0.55" stop-color="#0a0c1c"/>
      <stop offset="1" stop-color="#05070f"/>
    </radialGradient>
    <linearGradient id="cy" x1="0" y1="0" x2="1" y2="1">
      <stop offset="0" stop-color="#2ee6ff"/>
      <stop offset="1" stop-color="#2f7fff"/>
    </linearGradient>
    <filter id="glow" x="-40%" y="-40%" width="180%" height="180%">
      <feGaussianBlur stdDeviation="8" result="b"/>
      <feMerge><feMergeNode in="b"/><feMergeNode in="SourceGraphic"/></feMerge>
    </filter>
  </defs>

  <rect width="1080" height="1920" fill="url(#bg)"/>

  <text x="540" y="150" text-anchor="middle" font-family="system-ui,sans-serif"
        font-size="38" font-weight="800" letter-spacing="6" fill="#eafcff">LEVEL 47</text>
  <text x="540" y="196" text-anchor="middle" font-family="system-ui,sans-serif"
        font-size="22" font-weight="700" letter-spacing="5" fill="#8ba3c8">WORLD 3 · MEDIUM</text>

  <text x="120" y="300" font-family="system-ui,sans-serif" font-size="34"
        font-weight="800" fill="#cfeaff">31</text>
  <text x="120" y="330" font-family="system-ui,sans-serif" font-size="17"
        letter-spacing="3" fill="#8ba3c8">MOVES</text>
  <text x="960" y="300" text-anchor="end" font-family="system-ui,sans-serif"
        font-size="34" font-weight="800" fill="#ff6b6b">0:38</text>
  <text x="960" y="330" text-anchor="end" font-family="system-ui,sans-serif"
        font-size="17" letter-spacing="3" fill="#8ba3c8">TIME</text>

  <rect x="78" y="688" width="924" height="924" rx="36"
        fill="rgba(10,17,33,0.78)" stroke="rgba(70,150,220,0.3)" stroke-width="3"/>

  <g fill="rgba(18,70,105,0.4)" stroke="rgba(46,230,255,0.35)" stroke-width="2">
    <rect x="94" y="704" width="144" height="144" rx="20"/>
    <rect x="244" y="704" width="144" height="144" rx="20"/>
    <rect x="394" y="704" width="144" height="144" rx="20"/>
    <rect x="544" y="704" width="144" height="144" rx="20"/>
    <rect x="694" y="704" width="144" height="144" rx="20"/>
    <rect x="844" y="704" width="144" height="144" rx="20"/>
    <rect x="94" y="854" width="144" height="144" rx="20"/>
    <rect x="244" y="854" width="144" height="144" rx="20"/>
    <rect x="394" y="854" width="144" height="144" rx="20" fill="rgba(255,255,255,0.03)" stroke="rgba(120,165,220,0.10)"/>
    <rect x="544" y="854" width="144" height="144" rx="20"/>
    <rect x="694" y="854" width="144" height="144" rx="20"/>
    <rect x="844" y="854" width="144" height="144" rx="20"/>
    <rect x="94" y="1004" width="144" height="144" rx="20"/>
    <rect x="244" y="1004" width="144" height="144" rx="20"/>
    <rect x="394" y="1004" width="144" height="144" rx="20"/>
    <rect x="544" y="1004" width="144" height="144" rx="20"/>
    <rect x="694" y="1004" width="144" height="144" rx="20"/>
    <rect x="844" y="1004" width="144" height="144" rx="20"/>
    <rect x="94" y="1154" width="144" height="144" rx="20"/>
    <rect x="244" y="1154" width="144" height="144" rx="20"/>
    <rect x="394" y="1154" width="144" height="144" rx="20"/>
    <rect x="544" y="1154" width="144" height="144" rx="20"/>
    <rect x="694" y="1154" width="144" height="144" rx="20"/>
    <rect x="844" y="1154" width="144" height="144" rx="20"/>
    <rect x="94" y="1304" width="144" height="144" rx="20"/>
    <rect x="244" y="1304" width="144" height="144" rx="20"/>
    <rect x="394" y="1304" width="144" height="144" rx="20"/>
    <rect x="544" y="1304" width="144" height="144" rx="20"/>
    <rect x="694" y="1304" width="144" height="144" rx="20"/>
    <rect x="844" y="1304" width="144" height="144" rx="20"/>
    <rect x="94" y="1454" width="144" height="144" rx="20"/>
    <rect x="244" y="1454" width="144" height="144" rx="20"/>
    <rect x="394" y="1454" width="144" height="144" rx="20"/>
    <rect x="544" y="1454" width="144" height="144" rx="20"/>
    <rect x="694" y="1454" width="144" height="144" rx="20"/>
    <rect x="844" y="1454" width="144" height="144" rx="20"/>
  </g>

  <g filter="url(#glow)" stroke="url(#cy)" stroke-width="15"
     stroke-linecap="round" stroke-linejoin="round" fill="none">
    <path d="M94 776 H766"/>
    <path d="M766 776 V926"/>
    <path d="M766 926 H166"/>
    <path d="M166 926 V1076"/>
    <path d="M166 1076 H916"/>
    <path d="M916 1076 V1226"/>
    <path d="M916 1226 H94"/>
    <path d="M94 1226 V1376"/>
    <path d="M94 1376 H766"/>
    <path d="M766 1376 V1526"/>
    <path d="M766 1526 H94"/>
  </g>

  <circle cx="766" cy="926" r="30" fill="none" stroke="#d9a6ff" stroke-width="10" filter="url(#glow)"/>
  <circle cx="166" cy="1226" r="30" fill="none" stroke="#d9a6ff" stroke-width="10" filter="url(#glow)"/>

  <circle cx="94" cy="776" r="30" fill="#ff6ade" filter="url(#glow)"/>
  <circle cx="94" cy="1526" r="24" fill="none" stroke="#5cffae" stroke-width="12" filter="url(#glow)"/>

  <g transform="translate(466 1180)">
    <path d="M-18 -6 a18 18 0 0 1 36 0" fill="none" stroke="#aac3e6" stroke-width="6"/>
    <rect x="-26" y="-6" width="52" height="40" rx="9" fill="#aac3e6"/>
  </g>

  <text x="540" y="1690" text-anchor="middle" font-family="system-ui,sans-serif"
        font-size="21" font-weight="700" letter-spacing="4" fill="#8ba3c8">
    3★ TARGET: <tspan fill="#ffc247">42</tspan> MOVES
  </text>

  <g font-family="system-ui,sans-serif" font-size="26" font-weight="800"
     letter-spacing="3" text-anchor="middle">
    <rect x="98" y="1750" width="272" height="120" rx="28"
          fill="rgba(38,56,92,0.85)" stroke="rgba(90,160,240,0.3)" stroke-width="2.5"/>
    <text x="234" y="1824" fill="#dbe7ff">UNDO</text>
    <rect x="404" y="1750" width="272" height="120" rx="28"
          fill="rgba(38,56,92,0.85)" stroke="rgba(90,160,240,0.3)" stroke-width="2.5"/>
    <text x="540" y="1824" fill="#dbe7ff">HINT</text>
    <rect x="710" y="1750" width="272" height="120" rx="28"
          fill="rgba(38,56,92,0.85)" stroke="rgba(90,160,240,0.3)" stroke-width="2.5"/>
    <text x="846" y="1824" fill="#dbe7ff">RESET</text>
  </g>
</svg>
